<svg width="297" height="297" viewBox="0 0 297 297" fill="none" xmlns="http://www.w3.org/2000/svg">
<circle cx="142" cy="140" r="127" fill="#00B593"/>
<mask id="path-2-outside-1_130_306" maskUnits="userSpaceOnUse" x="6.40941" y="4.77467" width="168.275" height="168.308" fill="black">
<rect fill="white" x="6.40941" y="4.77467" width="168.275" height="168.308"/>
<path d="M34.9471 110.13L64.1751 117.528C70.1743 119.046 74.4224 121.934 76.9195 126.192C79.3808 130.39 79.8279 135.584 78.2609 141.775C77.1191 146.287 75.38 149.728 73.0437 152.098C70.6716 154.409 67.8881 155.721 64.6932 156.036C61.4625 156.291 58.0243 155.651 54.3786 154.115L55.28 141.474C59.5138 143.107 62.658 143.699 64.7125 143.249C66.7191 142.786 68.0382 141.307 68.6698 138.812C69.1071 137.084 69.0153 135.631 68.3943 134.452C67.7734 133.274 66.7136 132.316 65.2148 131.579C63.7282 130.794 61.905 130.129 59.7453 129.582L31.8131 122.512L34.9471 110.13ZM61.6893 71.6081C64.8824 67.8898 68.3939 65.3585 72.2237 64.0142C76.0161 62.6376 79.9523 62.4613 84.0324 63.4854C88.1124 64.5094 92.1619 66.7469 96.1807 70.198C100.162 73.6168 102.986 77.2816 104.652 81.1923C106.281 85.0708 106.72 89.0046 105.97 92.9936C105.183 96.9504 103.192 100.788 99.9993 104.506C96.8385 108.187 93.3458 110.734 89.5212 112.149C85.6913 113.493 81.7202 113.672 77.6079 112.685C73.4902 111.629 69.4408 109.392 65.4596 105.973C61.4408 102.522 58.617 98.8568 56.9881 94.9784C55.3915 91.0623 54.987 87.1259 55.7746 83.1691C56.557 79.1425 58.5285 75.2888 61.6893 71.6081ZM69.295 78.1393C67.8113 79.867 66.9854 81.7027 66.8171 83.6464C66.6811 85.5526 67.2028 87.5667 68.3822 89.6889C69.5563 91.7412 71.4204 93.864 73.9744 96.0572C76.4908 98.2181 78.8709 99.74 81.1147 100.623C83.3907 101.468 85.4605 101.679 87.3242 101.257C89.2202 100.797 90.91 99.7027 92.3936 97.975C93.8773 96.2473 94.6871 94.4304 94.8231 92.5242C94.9591 90.6181 94.4212 88.6227 93.2096 86.5382C92.0302 84.416 90.1823 82.2745 87.6658 80.1135C85.1118 77.9203 82.7156 76.4172 80.4772 75.6043C78.2334 74.7216 76.1797 74.4915 74.316 74.914C72.4523 75.3365 70.7786 76.4116 69.295 78.1393ZM117.36 87.2989L101.054 41.0793L123.113 33.2966C128.669 31.3365 133.156 30.9608 136.575 32.1696C139.994 33.3783 142.411 35.9901 143.828 40.0052C144.734 42.5729 144.754 45.0856 143.889 47.5433C143.07 49.9846 141.211 52.0055 138.311 53.6062L138.335 53.6762C141.955 52.9242 144.959 53.2554 147.348 54.67C149.784 56.0681 151.487 58.1444 152.459 60.8989C153.859 64.8672 153.569 68.4344 151.589 71.6005C149.639 74.7034 145.956 77.2102 140.54 79.1209L117.36 87.2989ZM125.996 74.7239L135.45 71.3885C137.504 70.6637 138.865 69.6849 139.532 68.452C140.246 67.2026 140.307 65.7375 139.714 64.0568C139.138 62.4228 138.188 61.3668 136.864 60.8888C135.571 60.3476 133.897 60.4394 131.843 61.1642L122.389 64.4996L125.996 74.7239ZM119.35 55.8859L127.683 52.9458C129.691 52.2376 131.06 51.2821 131.79 50.0793C132.504 48.8299 132.573 47.3882 131.997 45.7542C131.404 44.0735 130.446 42.9941 129.122 42.5161C127.798 42.0382 126.133 42.1533 124.125 42.8616L115.792 45.8017L119.35 55.8859Z"/>
</mask>
<path d="M34.9471 110.13L64.1751 117.528C70.1743 119.046 74.4224 121.934 76.9195 126.192C79.3808 130.39 79.8279 135.584 78.2609 141.775C77.1191 146.287 75.38 149.728 73.0437 152.098C70.6716 154.409 67.8881 155.721 64.6932 156.036C61.4625 156.291 58.0243 155.651 54.3786 154.115L55.28 141.474C59.5138 143.107 62.658 143.699 64.7125 143.249C66.7191 142.786 68.0382 141.307 68.6698 138.812C69.1071 137.084 69.0153 135.631 68.3943 134.452C67.7734 133.274 66.7136 132.316 65.2148 131.579C63.7282 130.794 61.905 130.129 59.7453 129.582L31.8131 122.512L34.9471 110.13ZM61.6893 71.6081C64.8824 67.8898 68.3939 65.3585 72.2237 64.0142C76.0161 62.6376 79.9523 62.4613 84.0324 63.4854C88.1124 64.5094 92.1619 66.7469 96.1807 70.198C100.162 73.6168 102.986 77.2816 104.652 81.1923C106.281 85.0708 106.72 89.0046 105.97 92.9936C105.183 96.9504 103.192 100.788 99.9993 104.506C96.8385 108.187 93.3458 110.734 89.5212 112.149C85.6913 113.493 81.7202 113.672 77.6079 112.685C73.4902 111.629 69.4408 109.392 65.4596 105.973C61.4408 102.522 58.617 98.8568 56.9881 94.9784C55.3915 91.0623 54.987 87.1259 55.7746 83.1691C56.557 79.1425 58.5285 75.2888 61.6893 71.6081ZM69.295 78.1393C67.8113 79.867 66.9854 81.7027 66.8171 83.6464C66.6811 85.5526 67.2028 87.5667 68.3822 89.6889C69.5563 91.7412 71.4204 93.864 73.9744 96.0572C76.4908 98.2181 78.8709 99.74 81.1147 100.623C83.3907 101.468 85.4605 101.679 87.3242 101.257C89.2202 100.797 90.91 99.7027 92.3936 97.975C93.8773 96.2473 94.6871 94.4304 94.8231 92.5242C94.9591 90.6181 94.4212 88.6227 93.2096 86.5382C92.0302 84.416 90.1823 82.2745 87.6658 80.1135C85.1118 77.9203 82.7156 76.4172 80.4772 75.6043C78.2334 74.7216 76.1797 74.4915 74.316 74.914C72.4523 75.3365 70.7786 76.4116 69.295 78.1393ZM117.36 87.2989L101.054 41.0793L123.113 33.2966C128.669 31.3365 133.156 30.9608 136.575 32.1696C139.994 33.3783 142.411 35.9901 143.828 40.0052C144.734 42.5729 144.754 45.0856 143.889 47.5433C143.07 49.9846 141.211 52.0055 138.311 53.6062L138.335 53.6762C141.955 52.9242 144.959 53.2554 147.348 54.67C149.784 56.0681 151.487 58.1444 152.459 60.8989C153.859 64.8672 153.569 68.4344 151.589 71.6005C149.639 74.7034 145.956 77.2102 140.54 79.1209L117.36 87.2989ZM125.996 74.7239L135.45 71.3885C137.504 70.6637 138.865 69.6849 139.532 68.452C140.246 67.2026 140.307 65.7375 139.714 64.0568C139.138 62.4228 138.188 61.3668 136.864 60.8888C135.571 60.3476 133.897 60.4394 131.843 61.1642L122.389 64.4996L125.996 74.7239ZM119.35 55.8859L127.683 52.9458C129.691 52.2376 131.06 51.2821 131.79 50.0793C132.504 48.8299 132.573 47.3882 131.997 45.7542C131.404 44.0735 130.446 42.9941 129.122 42.5161C127.798 42.0382 126.133 42.1533 124.125 42.8616L115.792 45.8017L119.35 55.8859Z" fill="#FFBE1A"/>
<path d="M34.9471 110.13L36.4655 104.131L30.4663 102.612L28.9479 108.612L34.9471 110.13ZM64.1751 117.528L62.6567 123.527L64.1751 117.528ZM76.9195 126.192L82.2579 123.062L82.2576 123.061L76.9195 126.192ZM73.0437 152.098L77.3615 156.531L77.4069 156.487L77.4513 156.442L73.0437 152.098ZM64.6932 156.036L65.1797 162.205L65.24 162.201L65.3002 162.195L64.6932 156.036ZM54.3786 154.115L48.206 153.675L47.8906 158.097L51.9765 159.818L54.3786 154.115ZM55.28 141.474L57.5074 135.7L49.7023 132.689L49.1073 141.034L55.28 141.474ZM64.7125 143.249L66.0373 149.294L66.0698 149.286L66.1022 149.279L64.7125 143.249ZM68.3943 134.452L73.8692 131.567L73.8692 131.567L68.3943 134.452ZM65.2148 131.579L62.3257 137.052L62.4046 137.093L62.4846 137.133L65.2148 131.579ZM31.8131 122.512L25.814 120.994L24.2956 126.993L30.2947 128.512L31.8131 122.512ZM34.9471 110.13L33.4287 116.129L62.6567 123.527L64.1751 117.528L65.6935 111.528L36.4655 104.131L34.9471 110.13ZM64.1751 117.528L62.6567 123.527C67.4809 124.748 70.1232 126.836 71.5815 129.323L76.9195 126.192L82.2576 123.061C78.7216 117.032 72.8676 113.344 65.6935 111.528L64.1751 117.528ZM76.9195 126.192L71.5811 129.322C72.9874 131.72 73.559 135.131 72.2618 140.257L78.2609 141.775L84.2601 143.294C86.0968 136.037 85.7742 129.059 82.2579 123.062L76.9195 126.192ZM78.2609 141.775L72.2618 140.257C71.2876 144.106 69.9524 146.419 68.6361 147.754L73.0437 152.098L77.4513 156.442C80.8077 153.036 82.9507 148.467 84.2601 143.294L78.2609 141.775ZM73.0437 152.098L68.7259 147.665C67.325 149.03 65.8374 149.705 64.0863 149.878L64.6932 156.036L65.3002 162.195C69.9388 161.738 74.0182 159.788 77.3615 156.531L73.0437 152.098ZM64.6932 156.036L64.2068 149.867C62.1568 150.029 59.7133 149.647 56.7807 148.412L54.3786 154.115L51.9765 159.818C56.3354 161.654 60.7683 162.553 65.1797 162.205L64.6932 156.036ZM54.3786 154.115L60.5513 154.555L61.4527 141.914L55.28 141.474L49.1073 141.034L48.206 153.675L54.3786 154.115ZM55.28 141.474L53.0526 147.248C57.3771 148.916 62.0444 150.169 66.0373 149.294L64.7125 143.249L63.3877 137.204C63.4827 137.183 63.0965 137.275 61.9576 137.061C60.8728 136.857 59.406 136.433 57.5074 135.7L55.28 141.474ZM64.7125 143.249L66.1022 149.279C70.9723 148.157 73.6377 144.405 74.669 140.33L68.6698 138.812L62.6706 137.293C62.5284 137.855 62.4168 137.866 62.5883 137.674C62.6779 137.573 62.8072 137.461 62.9686 137.367C63.1279 137.274 63.2586 137.233 63.3228 137.218L64.7125 143.249ZM68.6698 138.812L74.669 140.33C75.3526 137.629 75.4145 134.5 73.8692 131.567L68.3943 134.452L62.9194 137.337C62.8576 137.219 62.8148 137.105 62.7877 137.005C62.761 136.907 62.7544 136.84 62.7529 136.816C62.7504 136.776 62.7655 136.918 62.6706 137.293L68.6698 138.812ZM68.3943 134.452L73.8692 131.567C72.4988 128.966 70.3168 127.192 67.945 126.026L65.2148 131.579L62.4846 137.133C62.8035 137.289 62.9457 137.406 62.9849 137.442C63.0152 137.469 62.9712 137.435 62.9194 137.337L68.3943 134.452ZM65.2148 131.579L68.1039 126.107C66.0687 125.032 63.7556 124.213 61.2637 123.583L59.7453 129.582L58.2269 135.581C60.0545 136.044 61.3877 136.556 62.3257 137.052L65.2148 131.579ZM59.7453 129.582L61.2637 123.583L33.3315 116.513L31.8131 122.512L30.2947 128.512L58.2269 135.581L59.7453 129.582ZM31.8131 122.512L37.8123 124.031L40.9463 111.648L34.9471 110.13L28.9479 108.612L25.814 120.994L31.8131 122.512ZM61.6893 71.6081L56.9945 67.5764L61.6893 71.6081ZM72.2238 64.0142L74.2733 69.8533L74.3043 69.8424L74.3352 69.8312L72.2238 64.0142ZM84.0324 63.4853L82.5259 69.4876V69.4876L84.0324 63.4853ZM96.1807 70.198L100.212 65.5031L96.1807 70.198ZM104.652 81.1923L110.358 78.7961L110.351 78.7813L110.345 78.7664L104.652 81.1923ZM105.97 92.9936L112.04 94.2017L112.046 94.1695L112.052 94.1372L105.97 92.9936ZM89.5212 112.149L91.5707 117.988L91.6191 117.971L91.6673 117.953L89.5212 112.149ZM77.6079 112.685L76.0702 118.68L76.1172 118.692L76.1644 118.703L77.6079 112.685ZM56.9881 94.9784L51.2577 97.3147L51.27 97.3447L51.2825 97.3746L56.9881 94.9784ZM55.7746 83.1691L61.8439 84.3773L61.8467 84.3633L61.8494 84.3494L55.7746 83.1691ZM66.8171 83.6464L60.6518 83.1128L60.6478 83.1594L60.6445 83.206L66.8171 83.6464ZM68.3822 89.6889L62.9731 92.695L62.9917 92.7285L63.0108 92.7618L68.3822 89.6889ZM81.1147 100.623L78.8491 106.381L78.9046 106.403L78.9605 106.424L81.1147 100.623ZM87.3242 101.257L88.6924 107.292L88.738 107.282L88.7835 107.27L87.3242 101.257ZM94.8231 92.5242L100.996 92.9646L100.996 92.9646L94.8231 92.5242ZM93.2096 86.5382L87.8005 89.5443L87.8294 89.5964L87.8594 89.6479L93.2096 86.5382ZM80.4772 75.6043L78.2117 81.3631L78.2879 81.3931L78.3648 81.421L80.4772 75.6043ZM74.316 74.914L72.9478 68.8788L72.9478 68.8788L74.316 74.914ZM61.6893 71.6081L66.3842 75.6397C69.0162 72.5748 71.662 70.7698 74.2733 69.8533L72.2238 64.0142L70.1742 58.1751C65.1258 59.9471 60.7486 63.2047 56.9945 67.5764L61.6893 71.6081ZM72.2238 64.0142L74.3352 69.8312C76.9157 68.8945 79.5892 68.7505 82.5259 69.4876L84.0324 63.4853L85.5388 57.4832C80.3153 56.1722 75.1164 56.3807 70.1123 58.1972L72.2238 64.0142ZM84.0324 63.4853L82.5259 69.4876C85.4643 70.225 88.6749 71.9095 92.149 74.8928L96.1807 70.198L100.212 65.5031C95.6488 61.5843 90.7606 58.7937 85.5388 57.4832L84.0324 63.4853ZM96.1807 70.198L92.149 74.8928C95.5752 77.8351 97.742 80.7621 98.9591 83.6182L104.652 81.1923L110.345 78.7664C108.229 73.8011 104.749 69.3986 100.212 65.5031L96.1807 70.198ZM104.652 81.1923L98.9465 83.5885C100.124 86.3924 100.406 89.0973 99.8885 91.85L105.97 92.9936L112.052 94.1372C113.035 88.9118 112.438 83.7492 110.358 78.7961L104.652 81.1923ZM105.97 92.9936L99.901 91.7855C99.3614 94.4961 97.9524 97.3911 95.3044 100.475L99.9993 104.506L104.694 108.538C108.432 104.185 111.004 99.4047 112.04 94.2017L105.97 92.9936ZM99.9993 104.506L95.3044 100.475C92.6987 103.509 90.0415 105.358 87.3751 106.344L89.5212 112.149L91.6673 117.953C96.65 116.111 100.978 112.865 104.694 108.538L99.9993 104.506ZM89.5212 112.149L87.4717 106.309C84.8133 107.243 82.0575 107.389 79.0513 106.668L77.6079 112.685L76.1644 118.703C81.3829 119.955 86.5693 119.743 91.5707 117.988L89.5212 112.149ZM77.6079 112.685L79.1455 106.691C76.1382 105.92 72.9174 104.22 69.4912 101.278L65.4596 105.973L61.4279 110.668C65.9641 114.563 70.8422 117.339 76.0702 118.68L77.6079 112.685ZM65.4596 105.973L69.4912 101.278C66.0171 98.2945 63.8668 95.3753 62.6937 92.5822L56.9881 94.9784L51.2825 97.3746C53.3671 102.338 56.8644 106.749 61.4279 110.668L65.4596 105.973ZM56.9881 94.9784L62.7185 92.642C61.5564 89.7917 61.3048 87.0858 61.8439 84.3773L55.7746 83.1691L49.7054 81.961C48.6693 87.166 49.2266 92.333 51.2577 97.3147L56.9881 94.9784ZM55.7746 83.1691L61.8494 84.3494C62.3924 81.5548 63.7945 78.6554 66.3842 75.6397L61.6893 71.6081L56.9945 67.5764C53.2625 71.9223 50.7216 76.7302 49.6999 81.9889L55.7746 83.1691ZM69.295 78.1393L64.6001 74.1077C62.4179 76.6489 60.9497 79.6715 60.6518 83.1128L66.8171 83.6464L72.9824 84.1801C73.0211 83.734 73.2048 83.0852 73.9898 82.171L69.295 78.1393ZM66.8171 83.6464L60.6445 83.206C60.4026 86.5969 61.367 89.805 62.9731 92.695L68.3822 89.6889L73.7914 86.6827C73.0387 85.3285 72.9597 84.5083 72.9898 84.0868L66.8171 83.6464ZM68.3822 89.6889L63.0108 92.7618C64.65 95.6272 67.0611 98.2774 69.9427 100.752L73.9744 96.0572L78.006 91.3623C75.7797 89.4505 74.4627 87.8552 73.7537 86.616L68.3822 89.6889ZM73.9744 96.0572L69.9427 100.752C72.8013 103.207 75.7698 105.17 78.8491 106.381L81.1147 100.623L83.3802 94.8639C81.972 94.31 80.1803 93.2295 78.006 91.3623L73.9744 96.0572ZM81.1147 100.623L78.9605 106.424C82.0601 107.575 85.377 108.043 88.6924 107.292L87.3242 101.257L85.956 95.2214C85.544 95.3148 84.7213 95.3607 83.2689 94.8214L81.1147 100.623ZM87.3242 101.257L88.7835 107.27C92.1402 106.456 94.9062 104.548 97.0885 102.007L92.3936 97.975L87.6988 93.9434C86.9137 94.8576 86.3001 95.1372 85.8649 95.2428L87.3242 101.257ZM92.3936 97.975L97.0885 102.007C99.2666 99.4702 100.748 96.4349 100.996 92.9646L94.8231 92.5242L88.6504 92.0838C88.626 92.4259 88.488 93.0244 87.6988 93.9434L92.3936 97.975ZM94.8231 92.5242L100.996 92.9646C101.241 89.5303 100.232 86.3056 98.5598 83.4284L93.2096 86.5382L87.8594 89.6479C88.6103 90.9398 88.6774 91.7059 88.6504 92.0839L94.8231 92.5242ZM93.2096 86.5382L98.6187 83.532C96.9797 80.5828 94.5798 77.8938 91.6975 75.4187L87.6658 80.1135L83.6342 84.8083C85.7848 86.6551 87.0807 88.2492 87.8005 89.5443L93.2096 86.5382ZM87.6658 80.1135L91.6975 75.4187C88.7927 72.9242 85.7556 70.9374 82.5895 69.7877L80.4772 75.6043L78.3648 81.421C79.6756 81.897 81.431 82.9163 83.6342 84.8083L87.6658 80.1135ZM80.4772 75.6043L82.7427 69.8456C79.6457 68.6272 76.3057 68.1176 72.9478 68.8788L74.316 74.914L75.6842 80.9492C76.0537 80.8655 76.8211 80.816 78.2117 81.3631L80.4772 75.6043ZM74.316 74.914L72.9478 68.8788C69.5548 69.648 66.7782 71.5713 64.6001 74.1077L69.295 78.1393L73.9898 82.171C74.779 81.252 75.3498 81.0251 75.6842 80.9492L74.316 74.914ZM117.36 87.2989L111.525 89.3578L113.584 95.1936L119.419 93.1347L117.36 87.2989ZM101.054 41.0793L98.9949 35.2435L93.1591 37.3024L95.218 43.1382L101.054 41.0793ZM136.575 32.1696L134.512 38.004L134.512 38.004L136.575 32.1696ZM143.889 47.5433L138.052 45.4882L138.036 45.5319L138.022 45.5758L143.889 47.5433ZM138.311 53.6062L135.32 48.1882L130.731 50.7214L132.475 55.6651L138.311 53.6062ZM138.335 53.6762L132.5 55.7351L134.299 60.8353L139.594 59.7352L138.335 53.6762ZM147.348 54.67L144.195 59.9949L144.231 60.0162L144.267 60.037L147.348 54.67ZM152.459 60.8989L158.295 58.8399L152.459 60.8989ZM151.589 71.6005L156.828 74.8934L156.835 74.8821L151.589 71.6005ZM125.996 74.7239L120.16 76.7828L122.219 82.6186L128.055 80.5597L125.996 74.7239ZM139.532 68.452L134.16 65.381L134.124 65.4431L134.09 65.5059L139.532 68.452ZM136.864 60.8888L134.475 66.5976L134.617 66.6569L134.762 66.7092L136.864 60.8888ZM122.389 64.4996L120.33 58.6638L114.494 60.7227L116.553 66.5585L122.389 64.4996ZM119.35 55.8859L113.514 57.9449L115.573 63.7807L121.409 61.7218L119.35 55.8859ZM131.79 50.0793L137.079 53.2922L137.122 53.2218L137.163 53.1503L131.79 50.0793ZM129.122 42.5161L127.02 48.3366L127.02 48.3366L129.122 42.5161ZM124.125 42.8616L126.184 48.6974L124.125 42.8616ZM115.792 45.8017L113.733 39.9659L107.897 42.0248L109.956 47.8606L115.792 45.8017ZM117.36 87.2989L123.196 85.2399L106.89 39.0204L101.054 41.0793L95.218 43.1382L111.525 89.3578L117.36 87.2989ZM101.054 41.0793L103.113 46.9151L125.172 39.1324L123.113 33.2966L121.054 27.4608L98.9949 35.2435L101.054 41.0793ZM123.113 33.2966L125.172 39.1324C130.167 37.37 133.036 37.482 134.512 38.004L136.575 32.1696L138.638 26.3351C133.277 24.4397 127.17 25.303 121.054 27.4608L123.113 33.2966ZM136.575 32.1696L134.512 38.004C135.851 38.4772 137.077 39.47 137.992 42.0641L143.828 40.0052L149.664 37.9463C147.746 32.5103 144.137 28.2793 138.638 26.3351L136.575 32.1696ZM143.828 40.0052L137.992 42.0641C138.451 43.3655 138.426 44.4252 138.052 45.4882L143.889 47.5433L149.726 49.5985C151.082 45.7461 151.016 41.7804 149.664 37.9463L143.828 40.0052ZM143.889 47.5433L138.022 45.5758C137.824 46.1635 137.265 47.1151 135.32 48.1882L138.311 53.6062L141.301 59.0241C145.157 56.8959 148.316 53.8057 149.756 49.5109L143.889 47.5433ZM138.311 53.6062L132.475 55.6651L132.5 55.7351L138.335 53.6762L144.171 51.6173L144.146 51.5472L138.311 53.6062ZM138.335 53.6762L139.594 59.7352C142.214 59.1909 143.523 59.5969 144.195 59.9949L147.348 54.67L150.501 49.3451C146.395 46.914 141.696 46.6574 137.077 47.6172L138.335 53.6762ZM147.348 54.67L144.267 60.037C145.363 60.6661 146.123 61.5391 146.623 62.9578L152.459 60.8989L158.295 58.8399C156.852 54.7496 154.204 51.4701 150.429 49.303L147.348 54.67ZM152.459 60.8989L146.623 62.9578C147.487 65.4046 147.188 66.9668 146.342 68.3188L151.589 71.6005L156.835 74.8821C159.95 69.902 160.232 64.3298 158.295 58.8399L152.459 60.8989ZM151.589 71.6005L146.349 68.3075C145.46 69.7232 143.282 71.5913 138.481 73.2851L140.54 79.1209L142.599 84.9567C148.629 82.8291 153.818 79.6835 156.828 74.8934L151.589 71.6005ZM140.54 79.1209L138.481 73.2851L115.302 81.4631L117.36 87.2989L119.419 93.1347L142.599 84.9567L140.54 79.1209ZM125.996 74.7239L128.055 80.5597L137.509 77.2243L135.45 71.3885L133.391 65.5527L123.937 68.8881L125.996 74.7239ZM135.45 71.3885L137.509 77.2243C140.241 76.2604 143.264 74.5576 144.974 71.3981L139.532 68.452L134.09 65.5059C134.28 65.1552 134.466 65.0377 134.398 65.0871C134.312 65.1485 134.02 65.3307 133.391 65.5527L135.45 71.3885ZM139.532 68.452L144.905 71.5229C146.719 68.3489 146.586 64.9357 145.55 61.9979L139.714 64.0568L133.878 66.1157C133.968 66.3692 133.922 66.364 133.93 66.1604C133.935 66.0573 133.952 65.9247 133.995 65.7761C134.037 65.6269 134.096 65.4927 134.16 65.381L139.532 68.452ZM139.714 64.0568L145.55 61.9979C144.513 59.0578 142.435 56.321 138.966 55.0683L136.864 60.8888L134.762 66.7092C134.626 66.66 134.475 66.5865 134.325 66.4856C134.176 66.3848 134.057 66.2763 133.969 66.1782C133.793 65.9835 133.803 65.9022 133.878 66.1157L139.714 64.0568ZM136.864 60.8888L139.253 55.18C135.938 53.7932 132.516 54.3645 129.784 55.3283L131.843 61.1641L133.901 67C134.531 66.778 134.872 66.7366 134.977 66.7308C135.062 66.7262 134.843 66.7515 134.475 66.5976L136.864 60.8888ZM131.843 61.1641L129.784 55.3283L120.33 58.6638L122.389 64.4996L124.447 70.3354L133.901 67L131.843 61.1641ZM122.389 64.4996L116.553 66.5585L120.16 76.7828L125.996 74.7239L131.832 72.665L128.224 62.4407L122.389 64.4996ZM119.35 55.8859L121.409 61.7218L129.742 58.7816L127.683 52.9458L125.624 47.11L117.291 50.0501L119.35 55.8859ZM127.683 52.9458L129.742 58.7816C132.435 57.8314 135.31 56.2044 137.079 53.2922L131.79 50.0793L126.501 46.8665C126.658 46.6085 126.782 46.5476 126.674 46.6234C126.552 46.7081 126.239 46.8933 125.624 47.11L127.683 52.9458ZM131.79 50.0793L137.163 53.1503C138.951 50.0214 138.874 46.6463 137.833 43.6953L131.997 45.7542L126.161 47.8131C126.235 48.0231 126.186 47.9877 126.196 47.7659C126.202 47.6553 126.221 47.5217 126.263 47.3774C126.305 47.2331 126.361 47.108 126.418 47.0084L131.79 50.0793ZM131.997 45.7542L137.833 43.6953C136.801 40.7713 134.743 37.9665 131.224 36.6957L129.122 42.5161L127.02 48.3366C126.87 48.2824 126.711 48.2034 126.558 48.0988C126.405 47.9946 126.288 47.8856 126.206 47.7927C126.045 47.6112 126.07 47.556 126.161 47.8131L131.997 45.7542ZM129.122 42.5161L131.224 36.6957C128.019 35.5383 124.76 36.0755 122.066 37.0258L124.125 42.8616L126.184 48.6974C126.799 48.4806 127.159 48.4278 127.307 48.4176C127.439 48.4085 127.304 48.4391 127.02 48.3366L129.122 42.5161ZM124.125 42.8616L122.066 37.0258L113.733 39.9659L115.792 45.8017L117.851 51.6375L126.184 48.6974L124.125 42.8616ZM115.792 45.8017L109.956 47.8606L113.514 57.9449L119.35 55.8859L125.185 53.827L121.628 43.7428L115.792 45.8017Z" fill="#611620" mask="url(#path-2-outside-1_130_306)"/>
<mask id="mask0_130_306" style="mask-type:luminance" maskUnits="userSpaceOnUse" x="85" y="90" width="184" height="184">
<path d="M85 90H269V274H85V90Z" fill="white"/>
</mask>
<g mask="url(#mask0_130_306)">
<path d="M111.045 116.004C144.404 82.7734 180.91 86.0992 210.861 116.004C213 118.147 215.263 120.158 217.411 122.301C242.725 147.656 248.921 177.763 230.135 206.569C231.906 207.898 233.75 209.333 235.714 210.897C251.474 223.386 278.324 244.358 258.921 263.756C239.735 282.942 218.175 256.345 205.856 240.71C204.375 238.83 202.912 236.939 201.467 235.038C172.754 253.539 142.817 247.292 117.596 222.066C115.452 219.927 113.189 217.917 111.045 215.773C81.1452 185.869 77.686 149.234 111.045 116.004Z" fill="#611620" stroke="#611620" stroke-width="4.6" stroke-miterlimit="10" stroke-linecap="round" stroke-linejoin="round"/>
<path d="M210.856 116.004C180.91 86.0992 144.404 82.7734 111.045 116.004C77.686 149.23 81.1452 185.869 111.045 215.773C136.699 241.423 167.22 247.449 196.375 227.779C198.942 231.855 202.042 235.838 205.851 240.714C233.543 275.845 244.928 264.901 252.371 257.458C259.814 250.016 270.711 238.631 235.714 210.897C230.93 207.088 226.855 204.034 222.821 201.421C242.536 172.266 236.51 141.699 210.861 115.999L210.856 116.004Z" fill="#FFBE1A" stroke="#611620" stroke-width="4.6" stroke-miterlimit="10" stroke-linecap="round" stroke-linejoin="round"/>
<path d="M160.974 210.147C172.711 210.147 183.968 205.485 192.268 197.185C200.568 188.885 205.23 177.628 205.23 165.891C205.23 154.153 200.568 142.896 192.268 134.597C183.968 126.297 172.711 121.634 160.974 121.634C149.236 121.634 137.979 126.297 129.68 134.597C121.38 142.896 116.717 154.153 116.717 165.891C116.717 177.628 121.38 188.885 129.68 197.185C137.979 205.485 149.236 210.147 160.974 210.147Z" fill="#00B593" stroke="#611620" stroke-width="4.6" stroke-miterlimit="10" stroke-linecap="round" stroke-linejoin="round"/>
<path d="M150 142.066C152.868 139.571 156.508 138.139 160.307 138.01C164.107 137.881 167.835 139.063 170.866 141.358" stroke="#611620" stroke-width="4.6" stroke-miterlimit="10" stroke-linecap="round" stroke-linejoin="round"/>
</g>
<path d="M218.5 128C219.959 128 221.358 127.421 222.389 126.389C223.421 125.358 224 123.959 224 122.5C224 121.041 223.421 119.642 222.389 118.611C221.358 117.579 219.959 117 218.5 117C217.041 117 215.642 117.579 214.611 118.611C213.579 119.642 213 121.041 213 122.5C213 123.959 213.579 125.358 214.611 126.389C215.642 127.421 217.041 128 218.5 128Z" fill="#FFBE1A" stroke="#611620" stroke-width="2" stroke-miterlimit="10" stroke-linecap="round"/>
<path d="M170.933 85.9891C170.933 85.9891 172.624 86.175 177.532 83.0149C179.35 81.8708 181.008 80.5144 182.465 78.9781C182.848 78.4782 183.035 77.8687 182.994 77.2535C182.954 76.6383 182.688 76.0555 182.242 75.6044C180.576 74.2656 178.749 73.1155 176.798 72.1779C174.645 71.0629 172.294 70.325 169.861 70C169.283 70.0114 168.726 70.2068 168.28 70.5544C167.835 70.902 167.527 71.3813 167.407 71.9144C167.022 73.9817 166.91 76.0858 167.072 78.1791C167.184 80.2876 167.572 82.3768 168.226 84.3938C168.423 84.9017 168.792 85.3338 169.277 85.6225C169.763 85.9112 170.336 86.0401 170.907 85.9891H170.933Z" fill="#FFBE1A" stroke="#611620" stroke-width="2" stroke-miterlimit="10"/>
<path d="M85 195.17C85 194.28 83.3275 192.764 81.8081 191.68C80.2886 190.597 78.0696 189.707 77.1787 190.091C75.8023 190.752 74.6456 191.742 73.831 192.958C72.8679 194.081 72.2372 195.415 72 196.83C72 197.722 73.6725 199.239 75.1919 200.32C76.7086 201.403 78.9577 202.294 79.8213 201.909C81.2035 201.248 82.3686 200.259 83.1963 199.045C84.1583 197.921 84.7814 196.586 85 195.17Z" fill="#FFBE1A" stroke="#611620" stroke-width="2" stroke-miterlimit="10"/>
<path d="M162 33.1703C162 32.2802 160.328 30.764 158.808 29.6803C157.289 28.5966 155.07 27.7065 154.179 28.0912C152.802 28.7515 151.646 29.7419 150.831 30.9576C149.868 32.0815 149.237 33.4154 149 34.8298C149 35.7224 150.672 37.2385 152.192 38.3197C153.709 39.4034 155.958 40.2935 156.821 39.9088C158.203 39.2478 159.369 38.2591 160.196 37.0449C161.158 35.921 161.781 34.5859 162 33.1703Z" fill="#FFBE1A" stroke="#611620" stroke-width="2" stroke-miterlimit="10"/>
<path d="M251.231 276.956C248.038 279.02 244.233 279.922 240.453 279.512C236.674 279.101 233.151 277.402 230.476 274.701" stroke="#611620" stroke-width="4.6" stroke-miterlimit="10" stroke-linecap="round" stroke-linejoin="round"/>
</svg>
